<svg t="1639552373824" class="icon" viewBox="0 0 1024 1024" version="1.1" xmlns="http://www.w3.org/2000/svg" p-id="1219" width="200" height="200"><path d="M559.1327001 464.8672999h164.96445032a23.56635005 23.56635005 0 0 1 23.56635006 23.56635005v23.56635005a23.56635005 23.56635005 0 0 1-23.56635006 23.56635005h-164.96445032v164.96445031a23.56635005 23.56635005 0 0 1-23.56635005 23.56635006h-23.56635005a23.56635005 23.56635005 0 0 1-23.56635005-23.56635006v-164.96445031h-164.96445031a23.56635005 23.56635005 0 0 1-23.56635006-23.56635005v-23.56635005a23.56635005 23.56635005 0 0 1 23.56635006-23.56635005h164.96445031v-164.96445032a23.56635005 23.56635005 0 0 1 23.56635005-23.56635006h23.56635005a23.56635005 23.56635005 0 0 1 23.56635005 23.56635006v164.96445032z m-47.1327001 471.32700093c234.27308581 0 424.19430083-189.92121503 424.19430083-424.19430083s-189.92121503-424.19430083-424.19430083-424.19430083-424.19430083 189.92121503-424.19430083 424.19430083 189.92121503 424.19430083 424.19430083 424.19430083z m0 70.69905014c-273.32252784 0-494.89335097-221.57082315-494.89335097-494.89335097s221.57082315-494.89335097 494.89335097-494.89335097 494.89335097 221.57082315 494.89335097 494.89335097-221.57082315 494.89335097-494.89335097 494.89335097z" fill="#1296db" p-id="1220"></path></svg>