<svg t="1637647881358" class="icon" viewBox="0 0 1024 1024" version="1.1" xmlns="http://www.w3.org/2000/svg" p-id="1099" width="200" height="200"><path d="M942.037333 312.234667c-32.597333-2.304-63.232 3.498667-101.248 54.144s-151.936 20.650667-137.173333-40.917334c6.570667-17.749333 7.68-36.309333 70.144-66.645333s36.010667-100.138667 9.557333-114.730667c0 0-241.28-138.368-578.858666 60.757334-92.757333 53.845333-264.832 250.453333-183.04 458.026666 51.456 123.989333 140.928 194.901333 286.08 240.981334s313.898667 14.677333 399.402666-29.226667c85.504-43.904 227.242667-109.141333 293.674667-283.477333 66.346667-174.378667-25.941333-276.821333-58.538667-278.997334zM94.165333 491.392c-3.797333-26.752 24.234667-52.864 62.762667-58.368 38.4-5.504 72.704 11.776 76.501333 38.485333S209.194667 524.373333 170.666667 529.877333s-72.704-11.776-76.501334-38.485333z m120.704 203.093333c-40.405333 5.802667-76.501333-12.373333-80.512-40.490666s25.557333-55.552 65.92-61.354667c40.405333-5.802667 76.416 12.373333 80.512 40.490667s-25.429333 55.552-65.92 61.354666z m18.346667-324.394666c-38.784 5.504-73.301333-11.861333-77.226667-38.912-3.797333-27.050667 24.448-53.376 63.232-58.837334s73.301333 11.861333 77.226667 38.912-24.533333 53.248-63.232 58.837334z m172.458667 467.626666c-44.074667 9.258667-84.992-8.064-91.477334-38.784-6.4-30.634667 24.021333-63.061333 68.138667-72.234666 44.074667-9.258667 84.992 8.064 91.477333 38.784 6.4 30.634667-24.149333 62.933333-68.138666 72.234666z m28.842666-580.565333c-36.906667 5.290667-69.802667-11.264-73.429333-36.992-3.712-25.642667 23.338667-50.773333 60.245333-55.978667 36.906667-5.290667 69.845333 11.264 73.429334 36.992 3.584 25.642667-23.338667 50.688-60.245334 55.978667z" fill="#cdcdcd" p-id="1100"></path></svg>