<svg t="1637657744557" class="icon" viewBox="0 0 1024 1024" version="1.1" xmlns="http://www.w3.org/2000/svg" p-id="984" width="200" height="200"><path d="M956.8 832a160 160 0 0 0-313.6 0H384V192a128 128 0 0 1 128-128h384a128 128 0 0 1 128 128v640h-67.2z m-576 0a160 160 0 0 0-313.6 0H0V576l192-384h192v640h-3.2z m161.728-575.872l87.36 157.248h-59.136v27.776h74.816l0.448 0.448v38.528H570.752v27.776h75.264V576h51.968V507.904h75.712v-27.776h-75.712V441.6l0.448-0.448h75.264v-27.776h-59.584l87.36-157.248h-59.136L672 393.664 601.664 256.128h-59.136zM224 960a96 96 0 1 1 0-192 96 96 0 0 1 0 192z m576 0a96 96 0 1 1 0-192 96 96 0 0 1 0 192z" fill="#cdcdcd" p-id="985"></path></svg>