<svg t="1639552394080" class="icon" viewBox="0 0 1024 1024" version="1.1" xmlns="http://www.w3.org/2000/svg" p-id="1363" width="200" height="200"><path d="M721.35111111 475.59111111H302.64888889c-5.00622222 0-9.10222222 4.096-9.10222222 9.10222222v54.61333334c0 5.00622222 4.096 9.10222222 9.10222222 9.10222222h418.70222222c5.00622222 0 9.10222222-4.096 9.10222222-9.10222222v-54.61333334c0-5.00622222-4.096-9.10222222-9.10222222-9.10222222z" fill="#1296db" p-id="1364"></path><path d="M512 2.27555555C230.51377778 2.27555555 2.27555555 230.51377778 2.27555555 512s228.23822222 509.72444445 509.72444445 509.72444445 509.72444445-228.23822222 509.72444445-509.72444445S793.48622222 2.27555555 512 2.27555555z m0 932.97777778c-233.69955555 0-423.25333333-189.55377778-423.25333333-423.25333333s189.55377778-423.25333333 423.25333333-423.25333333 423.25333333 189.55377778 423.25333333 423.25333333-189.55377778 423.25333333-423.25333333 423.25333333z" fill="#1296db" p-id="1365"></path></svg>