<svg t="1637647463884" class="icon" viewBox="0 0 1024 1024" version="1.1" xmlns="http://www.w3.org/2000/svg" p-id="1862" width="200" height="200"><path d="M217.42062487 91.46426996h58.9158742v117.83174977a88.37381268 88.37381268 0 0 0 83.18921659 88.22652389L364.71031175 297.6698324h294.5793765a88.37381268 88.37381268 0 0 0 88.22652253-83.1892152L747.66350093 209.29601973V91.46426996h58.9158742a88.37381268 88.37381268 0 0 1 88.37381268 88.37381267v736.44843851a88.37381268 88.37381268 0 0 1-88.37381268 88.37381266H217.42062487a88.37381268 88.37381268 0 0 1-88.37381268-88.37381266V179.83808263a88.37381268 88.37381268 0 0 1 88.37381268-88.37381267z m353.4952507 471.32700046h-265.12143801v88.37381268h265.12143801v-88.37381268z m147.28968687-176.74762534H305.79443756v88.37381268h412.41112488v-88.37381268zM600.37381268 3.09045728a88.37381268 88.37381268 0 0 1 88.37381266 88.37381268v58.91587556a88.37381268 88.37381268 0 0 1-88.37381266 88.37381268h-176.74762536a88.37381268 88.37381268 0 0 1-88.37381266-88.37381268V91.46426996a88.37381268 88.37381268 0 0 1 88.37381266-88.37381268h176.74762536z m0 88.37381268h-176.74762536v58.91587556h176.74762536V91.46426996z" fill="#cdcdcd" p-id="1863"></path></svg>