<svg t="1667201519468" class="icon" viewBox="0 0 1024 1024" version="1.1" xmlns="http://www.w3.org/2000/svg" p-id="1417" width="200" height="200"><path d="M858.62751915 463.69456242c-1.70103467-1.70103467-3.48240669-3.27050467-5.32082802-4.73285973L416.96732729 20.36127858c-24.29301646-24.29185251-63.67878941-24.29185251-87.97064078 0-24.29185251 24.29301646-24.29185251 63.67762546 0 87.97064078l397.3797228 399.64194816L320.46240313 913.50249131c-24.29185251 24.29301646-24.29185251 63.67762546 0 87.97180586 24.29185251 24.29185251 63.67762546 24.29185251 87.97064078 0l444.86898916-444.48593692c1.83958642-1.46351901 3.62212238-3.03182393 5.32432099-4.73402368 12.22044103-12.22044103 18.28758187-28.26209849 18.21190372-44.2793051C876.91510215 491.95549582 870.84796018 475.91500345 858.62751915 463.69456242z" fill="#8a8a8a" p-id="1418"></path></svg>
