<svg t="1641279586274" class="icon" viewBox="0 0 1024 1024" version="1.1" xmlns="http://www.w3.org/2000/svg" p-id="1356" width="200" height="200">
  <path d="M725.06926236 458.88733857l-242.49774199 265.12143804c-8.3955122 9.14668961-20.2376031 14.36074457-32.65412377 14.36074456h-0.22093454a44.27528016 44.27528016 0 0 1-32.69831069-14.75842672l-118.37672208-132.56071902a44.18690634 44.18690634 0 1 1 65.92686427-58.85695924l85.76678519 96.10652128 209.49012295-229.06492245a44.23109325 44.23109325 0 0 1 65.26406066 59.65232355m184.43614706-431.26420584H821.30834435c-0.08837381 0 0 28.36799387 0 44.6287754v87.49007456a88.5947472 88.5947472 0 0 1-88.10869122 88.90405553h-442.31093244A88.5947472 88.5947472 0 0 1 202.69165565 159.78616958v-87.49007454c0-16.34915535-0.17674763-29.64941415-0.17674764-44.6287754H113.96434771A88.10869124 88.10869124 0 0 0 25.94403028 115.64345015v796.07130458c0 48.56141007 39.45890736 88.02031742 88.02031743 88.02031741H910.1240261A88.10869124 88.10869124 0 0 0 998.05596972 911.75894164V115.64345015c0-48.51722316-39.7682157-88.02031742-88.5505603-88.02031742" fill="#cdcdcd" p-id="1357"></path><path d="M728.25071961 11.3623512a58.76858542 58.76858542 0 0 0-50.81494228-29.60522725H351.60152999c-21.78414482 0-40.65195383 11.93046471-50.9033161 29.56104034a59.56394974 59.56394974 0 0 0-8.30713839 30.0029094v58.68021162c0 32.91924522 26.51214381 59.65232355 59.21045449 59.65232355h325.83424734c32.60993687 0 59.12208067-26.73307834 59.12208068-59.65232355V41.32107369c0-11.04672658-3.13727035-21.07715433-8.3071384-29.95872249" fill="#cdcdcd" p-id="1358"></path>
</svg>