<svg t="1640661007467" class="icon" viewBox="0 0 1024 1024" version="1.1" xmlns="http://www.w3.org/2000/svg" p-id="1142" width="200" height="200"><path d="M778.24 88.74666667C926.15111147 179.76888853 1012.62222187 339.05777813 1012.62222187 512c0 86.47111147-22.7555552 172.94222187-65.9911104 248.0355552C857.8844448 917.04888853 691.76888853 1012.62222187 512 1012.62222187 236.65777813 1012.62222187 11.37777813 787.34222187 11.37777813 512S236.65777813 11.37777813 512 11.37777813c95.57333333 0 186.5955552 27.30666667 266.24 77.36888854z m88.74666667 625.77777813c36.40888853-61.44 54.61333333-131.98222187 54.61333333-202.5244448 0-141.0844448-70.54222187-270.79111147-191.14666667-345.8844448C664.46222187 125.1555552 589.36888853 102.4 512 102.4 286.72 102.4 102.4 286.72 102.4 512s184.32 409.6 409.6 409.6c147.91111147 0 282.16888853-79.6444448 354.98666667-207.0755552z" fill="#1296db" p-id="1143"></path><path d="M512 694.0444448c-25.03111147 0-45.51111147 20.48-45.51111147 45.5111104s20.48 45.51111147 45.51111147 45.51111147 45.51111147-20.48 45.51111147-45.51111147-20.48-45.51111147-45.51111147-45.5111104M512 238.93333333c-88.74666667 0-159.28888853 70.54222187-159.28888853 159.28888854 0 25.03111147 20.48 45.51111147 45.5111104 45.51111146s45.51111147-20.48 45.51111146-45.51111146c0-38.6844448 29.58222187-68.26666667 68.26666667-68.26666667 18.2044448 0 34.13333333 6.82666667 47.78666667 20.48 13.65333333 13.65333333 20.48 29.58222187 20.48 47.78666667 0 22.7555552-11.37777813 45.51111147-31.85777814 56.8888896-50.06222187 34.13333333-81.92 86.47111147-81.92 143.36v4.5511104c0 25.03111147 20.48 45.51111147 45.51111147 45.51111146s45.51111147-20.48 45.51111147-45.51111146v-4.5511104c0-25.03111147 13.65333333-50.06222187 38.68444373-65.99111147 45.51111147-29.58222187 75.09333333-79.6444448 75.09333333-134.25777813 0-40.96-15.92888853-81.92-47.78666666-111.50222187-29.58222187-31.85777813-70.54222187-47.78666667-111.50222187-47.78666667" fill="#1296db" p-id="1144"></path></svg>