<svg width="132" height="37" viewBox="0 0 132 37" fill="none" xmlns="http://www.w3.org/2000/svg">
<path d="M60.8317 33.6746H54.4931L46.7947 11.3569H51.5041L57.6624 30.1045L63.8186 11.3569H68.528L60.8317 33.6746Z" fill="#111111"/>
<path d="M76.8754 11.3569H72.3484V33.6746H76.8754V11.3569Z" fill="#111111"/>
<path d="M95.5081 34.121C92.4736 34.121 89.8494 32.6926 88.0834 30.3261V33.6735H83.5564V0.606628H88.0834V14.7031C89.8494 12.3367 92.4756 10.9082 95.5081 10.9082C101.71 10.9082 106.374 15.684 106.374 22.5136C106.374 29.3452 101.71 34.121 95.5081 34.121ZM88.0834 22.5156C88.0834 27.0237 91.0268 30.0135 94.9651 30.0135C98.9034 30.0135 101.847 27.0237 101.847 22.5156C101.847 18.0075 98.9034 15.0158 94.9651 15.0158C91.0268 15.0158 88.0834 18.0075 88.0834 22.5156Z" fill="#111111"/>
<path d="M131.911 24.0314H114.163C114.707 27.9142 117.242 30.1907 121.045 30.1907C123.806 30.1907 125.618 28.985 126.524 26.9762H131.411C130.008 31.5742 126.07 34.1185 120.863 34.1185C114.435 34.1185 109.726 29.3427 109.726 22.5131C109.726 15.6835 114.435 10.9077 120.863 10.9077C127.293 10.9077 132 15.6835 132 22.5131C132 23.0505 131.956 23.541 131.911 24.0314ZM114.207 20.819H127.518C126.975 17.069 124.484 14.8375 120.863 14.8375C117.196 14.8375 114.75 17.069 114.207 20.819Z" fill="#111111"/>
<path d="M74.6226 7.93869C76.6832 7.93869 78.3537 6.29181 78.3537 4.26028C78.3537 2.22876 76.6832 0.581879 74.6226 0.581879C72.562 0.581879 70.8916 2.22876 70.8916 4.26028C70.8916 6.29181 72.562 7.93869 74.6226 7.93869Z" fill="#111111"/>
<path d="M60.8317 33.6736H54.4931L46.7947 11.3559H51.5041L57.6624 30.1035L63.8186 11.3559H68.528L60.8317 33.6736Z" fill="#111111"/>
<path d="M76.8754 11.3559H72.3484V33.6736H76.8754V11.3559Z" fill="#111111"/>
<path d="M95.5081 34.1201C92.4736 34.1201 89.8494 32.6916 88.0834 30.3252V33.6725H83.5564V0.605682H88.0834V14.7022C89.8494 12.3357 92.4756 10.9073 95.5081 10.9073C101.71 10.9073 106.374 15.6831 106.374 22.5126C106.374 29.3443 101.71 34.1201 95.5081 34.1201ZM88.0834 22.5147C88.0834 27.0228 91.0268 30.0125 94.9651 30.0125C98.9034 30.0125 101.847 27.0228 101.847 22.5147C101.847 18.0066 98.9034 15.0148 94.9651 15.0148C91.0268 15.0148 88.0834 18.0066 88.0834 22.5147Z" fill="#111111"/>
<path d="M131.911 24.0305H114.163C114.707 27.9133 117.242 30.1898 121.045 30.1898C123.806 30.1898 125.618 28.9841 126.524 26.9753H131.411C130.008 31.5733 126.07 34.1175 120.863 34.1175C114.435 34.1175 109.726 29.3417 109.726 22.5121C109.726 15.6826 114.435 10.9068 120.863 10.9068C127.293 10.9068 132 15.6826 132 22.5121C132 23.0496 131.956 23.54 131.911 24.0305ZM114.207 20.818H127.518C126.975 17.0681 124.484 14.8365 120.863 14.8365C117.196 14.8365 114.75 17.0681 114.207 20.818Z" fill="#111111"/>
<path d="M74.6226 7.93773C76.6832 7.93773 78.3537 6.29085 78.3537 4.25932C78.3537 2.2278 76.6832 0.580917 74.6226 0.580917C72.562 0.580917 70.8916 2.2278 70.8916 4.25932C70.8916 6.29085 72.562 7.93773 74.6226 7.93773Z" fill="#111111"/>
<path d="M22.3862 4.26122C22.3862 2.22992 24.0569 0.582809 26.1173 0.582809H3.73104C1.67068 0.582809 0 2.22992 0 4.26122C0 6.29252 1.67068 7.93962 3.73104 7.93962H26.1173C24.0569 7.93962 22.3862 6.29252 22.3862 4.26122Z" fill="#66CCCC"/>
<path d="M23.7516 31.0922L12.5584 11.9788C13.5886 13.7383 12.9772 15.9883 11.1925 17.0039C9.40779 18.0196 7.12564 17.4167 6.09546 15.6572L17.2886 34.7706C18.3188 36.5301 20.6009 37.133 22.3856 36.1173C24.1703 35.1017 24.7817 32.8517 23.7516 31.0922Z" fill="#6666CC"/>
<path d="M39.1776 1.07425C37.3929 0.0585971 35.1108 0.661447 34.0806 2.42095L22.8875 21.5344C23.9176 19.7749 26.1998 19.172 27.9845 20.1877C29.7691 21.2033 30.3806 23.4533 29.3504 25.2128L40.5436 6.09936C41.5737 4.33985 40.9623 2.09194 39.1776 1.07425Z" fill="#FF6666"/>
<path d="M26.1151 7.93883C28.1757 7.93883 29.8461 6.29195 29.8461 4.26042C29.8461 2.22889 28.1757 0.582016 26.1151 0.582016C24.0545 0.582016 22.384 2.22889 22.384 4.26042C22.384 6.29195 24.0545 7.93883 26.1151 7.93883Z" fill="#FFCC00"/>
<path d="M9.32674 17.4958C11.3873 17.4958 13.0578 15.8489 13.0578 13.8174C13.0578 11.7858 11.3873 10.1389 9.32674 10.1389C7.26615 10.1389 5.5957 11.7858 5.5957 13.8174C5.5957 15.8489 7.26615 17.4958 9.32674 17.4958Z" fill="#FFCC00"/>
<path d="M26.1151 27.0518C28.1757 27.0518 29.8461 25.405 29.8461 23.3734C29.8461 21.3419 28.1757 19.695 26.1151 19.695C24.0545 19.695 22.384 21.3419 22.384 23.3734C22.384 25.405 24.0545 27.0518 26.1151 27.0518Z" fill="#FFCC00"/>
</svg>
