<svg t="1686558671376" class="icon" viewBox="0 0 1024 1024" version="1.1" xmlns="http://www.w3.org/2000/svg" p-id="1807" width="200" height="200"><path d="M519.54123201 6.737455c-236.29193647 0-427.33648083 191.04454438-427.33648083 427.33648085 0 170.93459234 100.5497602 316.73174462 246.34691248 387.11657676l-110.60473621 196.07203239h583.18860914l-110.60473623-196.07203239c145.79715229-67.87108813 246.34691248-216.18198443 246.3469125-387.11657676 0-233.77819246-191.04454438-427.33648083-427.33648085-427.33648085z m183.50331237 947.68148987H333.52417566l62.84360009-110.60473621c37.70616007 12.56872002 80.43980815 17.59620803 123.17345626 17.59620803s82.95355218-7.54123201 123.17345624-17.59620803l60.32985613 110.60473621z m-183.50331237-155.85212829c-201.09952038 0-364.49288073-163.39336033-364.49288072-364.49288073s163.39336033-364.49288073 364.49288072-364.49288072 364.49288073 163.39336033 364.49288073 364.49288072-163.39336033 364.49288073-364.49288073 364.49288073z" fill="#707070" p-id="1808"></path><path d="M519.54123201 434.07393585m-135.74217628 0a135.74217627 135.74217627 0 1 0 271.48435255 0 135.74217627 135.74217627 0 1 0-271.48435255 0Z" fill="#707070" p-id="1809"></path></svg>
