<svg t="1686558642959" class="icon" viewBox="0 0 1024 1024" version="1.1" xmlns="http://www.w3.org/2000/svg" p-id="1660" width="200" height="200"><path d="M945.493333 405.33333371H78.506667c-34.133333 0-61.44-23.893333-61.44-51.2S44.373333 302.93333371 78.506667 302.93333371h870.4c34.133333 0 61.44 23.893333 61.44 51.2s-30.72 51.2-64.853334 51.2zM78.506667 337.06666671c-17.066667 0-27.306667 10.24-27.306667 17.066667s10.24 17.066667 27.306667 17.066666h870.4c17.066667 0 27.306667-10.24 27.306666-17.066666s-13.653333-17.066667-30.72-17.066667H78.506667z" fill="" p-id="1661"></path><path d="M955.733333 337.06666671H68.266667c-10.24 0-17.066667-6.826667-17.066667-17.066667v-477.866666c0-10.24 6.826667-17.066667 17.066667-17.066667h344.746666c6.826667 0 13.653333 3.413333 17.066667 10.24 3.413333 13.653333 17.066667 23.893333 30.72 23.893333h102.4c13.653333 0 27.306667-10.24 30.72-23.893333 3.413333-6.826667 10.24-10.24 17.066667-10.24H955.733333c10.24 0 17.066667 6.826667 17.066667 17.066667v477.866666c0 10.24-6.826667 17.066667-17.066667 17.066667zM85.333333 302.93333371h853.333334V-140.80000029h-317.44c-13.653333 20.48-34.133333 34.133333-58.026667 34.133334h-102.4c-23.893333 0-47.786667-13.653333-58.026667-34.133334H85.333333v443.733334z" fill="" p-id="1662"></path><path d="M563.2-106.66666629h-102.4c-37.546667 0-68.266667-30.72-68.266667-68.266667s30.72-68.266667 68.266667-68.266667h102.4c37.546667 0 68.266667 30.72 68.266667 68.266667s-30.72 68.266667-68.266667 68.266667z m-102.4-102.4c-20.48 0-34.133333 13.653333-34.133333 34.133333s13.653333 34.133333 34.133333 34.133333h102.4c20.48 0 34.133333-13.653333 34.133333-34.133333s-13.653333-34.133333-34.133333-34.133333h-102.4zM273.066667 712.53333371c-3.413333 0-6.826667 0-6.826667-3.413334-6.826667-3.413333-10.24-13.653333-6.826667-23.893333l153.6-307.2c3.413333-6.826667 13.653333-10.24 23.893334-6.826667 6.826667 3.413333 10.24 13.653333 6.826666 23.893334l-153.6 307.2c-3.413333 6.826667-10.24 10.24-17.066666 10.24zM750.933333 712.53333371c-6.826667 0-13.653333-3.413333-17.066666-10.24l-136.533334-290.133334c-3.413333-10.24 0-17.066667 6.826667-23.893333 10.24-3.413333 17.066667 0 23.893333 6.826667l136.533334 290.133333c3.413333 10.24 0 17.066667-6.826667 23.893333-3.413333 3.413333-3.413333 3.413333-6.826667 3.413334zM512 746.66666671c-10.24 0-17.066667-6.826667-17.066667-17.066667V405.33333371c0-10.24 6.826667-17.066667 17.066667-17.066667s17.066667 6.826667 17.066667 17.066667v324.266666c0 10.24-6.826667 17.066667-17.066667 17.066667z" fill="" p-id="1663"></path><path d="M512-209.06666629c-10.24 0-17.066667-6.826667-17.066667-17.066667v-34.133333c0-10.24 6.826667-17.066667 17.066667-17.066667s17.066667 6.826667 17.066667 17.066667v34.133333c0 10.24-6.826667 17.066667-17.066667 17.066667z" fill="" p-id="1664"></path></svg>