<svg t="1641279679489" class="icon" viewBox="0 0 1024 1024" version="1.1" xmlns="http://www.w3.org/2000/svg" p-id="1503" width="200" height="200"><path d="M1004.77155555 818.40355555c-17.86311111-13.312-43.008-9.55733333-56.32 8.30577778-0.45511111 0.56888889-38.68444445 49.26577778-112.86755555 60.18844445l143.36-362.15466667c4.096-10.24 3.75466667-21.73155555-0.91022222-31.744-4.55111111-10.01244445-13.08444445-17.63555555-23.552-21.27644444l-420.97777778-143.92888889c-1.13777778-0.34133333-2.27555555-0.45511111-3.41333333-0.68266667-1.59288889-0.45511111-3.29955555-0.91022222-4.89244445-1.024-1.59288889-0.22755555-3.18577778-0.11377778-4.77866667-0.11377778-1.59288889 0-3.072 0-4.66488888 0.11377778-1.70666667 0.22755555-3.29955555 0.68266667-5.00622222 1.024-1.13777778 0.22755555-2.27555555 0.34133333-3.29955556 0.68266667L86.47111111 471.72266667c-10.46755555 3.52711111-18.88711111 11.264-23.552 21.27644444-4.66488889 10.01244445-4.89244445 21.504-0.91022222 31.744l136.98844444 345.99822222c-76.91377778-12.40177778-125.952-60.30222222-127.31733333-61.78133333-15.58755555-15.81511111-40.96-16.15644445-56.88888889-0.68266667s-16.27022222 41.07377778-0.79644444 57.00266667c3.52711111 3.52711111 86.58488889 87.38133333 217.77066666 88.86044445 64.96711111 0.91022222 114.80177778-12.51555555 158.49244445-24.23466667 38.45688889-10.35377778 71.56622222-19.22844445 109.45422222-17.06666667 44.032 2.50311111 84.30933333 13.76711111 126.976 25.82755556 54.04444445 15.13244445 109.90933333 30.94755555 179.08622222 30.94755555 135.28177778 0 204.45866667-91.02222222 207.41688889-94.89066667 13.08444445-17.74933333 9.32977778-43.008-8.41955556-56.32zM724.19555555 86.016c0-22.18666667-18.09066667-40.27733333-40.27733333-40.27733333H356.80711111c-22.18666667 0-40.27733333 18.09066667-40.27733333 40.27733333v53.70311111h407.66577777v-53.70311111z" fill="#bfbfbf" p-id="1504"></path><path d="M510.63466667 282.624c1.70666667-0.45511111 3.29955555-0.91022222 5.00622222-1.024 1.59288889-0.22755555 3.072-0.11377778 4.66488889-0.11377778 1.59288889 0 3.18577778-0.11377778 4.77866667 0.11377778 1.70666667 0.22755555 3.29955555 0.68266667 4.89244444 1.024 1.13777778 0.22755555 2.27555555 0.34133333 3.41333333 0.68266667l330.29688889 112.86755555v-179.76888889c0-22.18666667-18.09066667-40.27733333-40.27733333-40.27733333H217.31555555c-22.18666667 0-40.27733333 18.09066667-40.27733333 40.27733333v179.76888889L507.33511111 283.30666667c1.13777778-0.34133333 2.27555555-0.34133333 3.29955556-0.68266667z" fill="#bfbfbf" p-id="1505"></path></svg>