<svg t="1637647405033" class="icon" viewBox="0 0 1024 1024" version="1.1" xmlns="http://www.w3.org/2000/svg" p-id="1171" width="200" height="200"><path d="M353.952 817.52c0 54.308-44.012 98.32-98.32 98.32-54.307 0-98.32-44.012-98.32-98.32s44.012-98.319 98.32-98.319c54.308-0.001 98.32 44.01 98.32 98.32z m550.592 0c0 54.308-44.012 98.32-98.32 98.32-54.307 0-98.319-44.012-98.319-98.32s44.012-98.319 98.32-98.319c54.307-0.001 98.319 44.01 98.319 98.32z m87.875-335.055L904.544 325.92c-17.972-21.661-30.11-39.328-58.991-39.328H707.904V168.608c0-21.661-17.667-39.328-39.328-39.328H39.328C17.667 129.28 0 146.947 0 168.608v589.92c0 21.661 17.667 39.328 39.328 39.328h78.424c9.644-67.75 67.483-120.21 137.88-120.21s128.237 52.46 137.881 120.21l274.831-0.04c9.678-67.746 67.519-120.17 137.88-120.17 70.398 0 128.237 52.46 137.881 120.21h39.096c21.662 0 39.328-17.667 39.328-39.328v-196.64c-0.001-37.256-30.11-79.423-30.11-79.423z m-245.187 79.423v-196.64h96.207c6.336 0 15.134 9.293 15.134 9.293l82.8 153.934c7.335 10.792 15.287 23.581 15.287 33.413H747.232z" fill="#cdcdcd" p-id="1172"></path></svg>