<svg t="1642388417467" class="icon" viewBox="0 0 1024 1024" version="1.1" xmlns="http://www.w3.org/2000/svg" p-id="1266" width="200" height="200"><path d="M937.85130983 219.67599776L523.87523108-19.62371687a22.36962133 22.36962133 0 0 0-22.23153725 0L87.94378325 221.19492267a22.09345317 22.09345317 0 0 0 0 38.2492908l413.83799467 239.16163054a22.36962133 22.36962133 0 0 0 22.23153725 0L937.85130983 257.92528857a22.09345317 22.09345317 0 0 0 0-38.24929081z m37.97312263 105.63432298l-413.42374242 240.2663032a22.09345317 22.09345317 0 0 0-10.9086425 19.05560336l-1.38084082 439.52163397a22.09345317 22.09345317 0 0 0 33.14017975 19.19368743l413.56182651-240.68055545a21.817285 21.817285 0 0 0 10.90864249-18.91751928l1.24275674-439.38354988a21.95536909 21.95536909 0 0 0-33.14017975-19.05560335z m-512.7061976 240.2663032L49.41832429 326.41499339a22.09345317 22.09345317 0 0 0-33.14017976 19.05560336l-1.24275674 439.93588622a22.09345317 22.09345317 0 0 0 11.04672658 19.19368743L439.5058568 1043.62371687a22.09345317 22.09345317 0 0 0 33.14017973-19.05560336l1.51892492-439.79780214a21.95536909 21.95536909 0 0 0-11.04672659-19.19368743z m-132.56071901 108.94834093a5.5233633 5.5233633 0 0 1-8.28504494 4.6948588l-214.03032756-123.58525365a5.5233633 5.5233633 0 0 1-2.76168166-4.69485882v-54.26704434a5.3852792 5.3852792 0 0 1 8.28504494-4.6948588l214.03032758 123.44716957a5.79953147 5.79953147 0 0 1 2.76168164 4.8329429z" fill="#bfbfbf" p-id="1267"></path></svg>