<svg t="1637647457456" class="icon" viewBox="0 0 1024 1024" version="1.1" xmlns="http://www.w3.org/2000/svg" p-id="1726" width="200" height="200"><path d="M425.3261067 749.29743406c0 81.94805456 30.16492806 161.6840144 83.95904978 224.22596526 10.75882433 12.97091906 0 34.48856775-17.29455877 34.48856775h-366.00112712c-88.28268946 0-144.28890588-84.05959952-126.99434712-166.00765409 17.09345923-99.24261332 118.34706777-150.92519007 202.40666729-187.62585254 36.6001127-17.29455876 88.1821397-36.70066247 103.2646037-79.83650959 17.29455876-45.24739209-12.87036929-92.70687891-45.24739208-122.87180698-77.42331536-73.40132494-92.50577938-189.83794726-58.01721162-286.86846584 30.16492806-88.48378899 107.5882434-146.60155037 202.30611751-148.8136451 94.81842386-2.11154496 176.56537891 49.67158154 211.05394665 138.05482076 34.48856775 86.27169424 23.62919365 200.59677161-30.16492806 280.33273143-32.27647302 47.45948682-73.20022543 73.40132494-109.80033813 138.05482078-30.16492806 51.78312651-49.47048203 118.64871702-49.47048203 176.86702816z m344.48347844-258.81508274a259.41838131 259.41838131 0 0 1 258.41288371 258.81508274 259.41838131 259.41838131 0 0 1-258.41288371 258.71453301 259.41838131 259.41838131 0 0 1-258.41288371-258.71453301 259.41838131 259.41838131 0 0 1 258.41288371-258.81508274z m63.84909773 279.52833336a10.55772482 10.55772482 0 0 0 15.28356355 0l83.65740049-82.75245265a10.55772482 10.55772482 0 0 0 0-15.28356355l-83.65740049-83.45630096a10.55772482 10.55772482 0 0 0-15.28356355 0l-15.18301378 15.18301377a10.55772482 10.55772482 0 0 0 0 15.28356354l26.14293765 26.14293769c4.32363969 4.32363969 1.40769665 12.36762051-5.02748801 12.3676205H685.24723682a11.16102338 11.16102338 0 0 0-10.8593741 10.8593741v21.81929794c0 5.83188609 5.73133634 10.8593741 10.8593741 10.8593741h154.1427824c6.5357344 0 9.45167746 8.04398081 5.02748798 12.36762051l-26.14293763 26.14293766a10.55772482 10.55772482 0 0 0 0 15.18301378l15.28356354 15.28356357zM706.06103718 910.17705039l14.47916548-15.18301379a10.55772482 10.55772482 0 0 0 0-15.28356355l-26.14293766-26.14293766c-4.42418944-4.32363969-1.50824641-12.36762051 5.02748801-12.36762049h155.65102879c5.83188609 0 10.95992387-5.02748801 10.95992385-10.85937411v-21.81929796c0-5.83188609-5.83188609-10.8593741-10.95992385-10.8593741H700.83244966c-6.5357344 0-9.45167746-8.04398081-5.02748802-12.36762051l26.14293765-26.14293765a10.55772482 10.55772482 0 0 0 0-15.1830138l-16.08796164-15.28356354a10.55772482 10.55772482 0 0 0-15.18301378 0l-83.65740048 83.45630097a10.55772482 10.55772482 0 0 0 0 15.28356354l83.65740048 83.45630097c4.32363969 3.61979137 11.56322243 3.61979137 15.18301378-0.70384832z" fill="#cdcdcd" p-id="1727"></path></svg>