<svg t="1637647472387" class="icon" viewBox="0 0 1024 1024" version="1.1" xmlns="http://www.w3.org/2000/svg" p-id="2002" width="200" height="200"><path d="M529.86341452 49.15078637c-6.42374163-6.42374163-24.641536-5.90066725-32.11506727 0L9.60951941 434.52309808c-12.84748325 12.845056-12.84748325 25.69375289-6.42374163 32.11749451h89.92024652v449.60001896c0 38.53638163 25.69132563 64.22770725 64.22770725 64.22770727h96.34398815V595.09722075h513.835008v385.3723117h96.33913363c38.54123615 0 64.23377541-25.69132563 64.23377542-64.22770727v-449.60123259h89.9202465c6.41888711-6.42374163 6.41888711-19.27243852 0-32.11749451L529.86341452 49.15078637z m488.14246873 385.37231171" fill="#cdcdcd" p-id="2003"></path><path d="M542.70725689 787.78519703H478.47954963v-64.23256178H350.02292148v256.91568357H671.16752592V723.55263525H542.70725689v64.23256178z m0 0" fill="#cdcdcd" p-id="2004"></path></svg>